<svg width="406" height="385" viewBox="0 0 406 385" fill="none" xmlns="http://www.w3.org/2000/svg">
<path d="M87.9636 0H30.7847C8.71375 0 -6.17088 22.59 2.51388 42.9058L146.36 379.398C147.813 382.796 151.149 385 154.841 385H240.554C247.16 385 251.625 378.251 249.048 372.16L185.414 221.76L96.4932 5.71757C95.0692 2.25775 91.701 0 87.9636 0Z" fill="#205C38"/>
<path d="M235.571 0H178.392C156.321 0 141.437 22.59 150.122 42.9058L273.118 330.626C274.093 332.907 277.321 332.911 278.302 330.633L328.723 213.554C329.024 212.855 329.03 212.063 328.741 211.359L244.101 5.71757C242.677 2.25775 239.309 0 235.571 0Z" fill="#43B872"/>
<path d="M405.787 32.4522C406.077 33.1562 406.071 33.9476 405.769 34.6468L353.922 155.041C352.94 157.319 349.712 157.315 348.737 155.034L300.804 42.9058C292.119 22.59 307.004 0 329.075 0H386.254C389.991 0 393.359 2.25775 394.784 5.71757L405.787 32.4522Z" fill="#9CCEB0"/>
</svg>
