<svg width="670" height="176" viewBox="0 0 670 176" fill="none" xmlns="http://www.w3.org/2000/svg">
<path d="M205.863 175.92C193.383 175.92 182.023 173.04 171.783 167.28C161.703 161.52 153.703 153.76 147.783 144C141.863 134.24 138.903 123.28 138.903 111.12C138.903 98.9601 141.703 88.0001 147.303 78.2401C153.063 68.4801 160.823 60.7201 170.583 54.9601C180.343 49.2001 191.223 46.3201 203.223 46.3201C215.223 46.3201 225.863 49.2801 235.143 55.2001C244.423 61.1201 251.703 69.1201 256.983 79.2001C262.423 89.2801 265.143 100.72 265.143 113.52V117.16C265.143 119.922 262.904 122.16 260.143 122.16H179.161C175.83 122.16 173.43 125.373 174.886 128.369C176.131 130.932 177.657 133.342 179.463 135.6C182.823 139.6 186.903 142.72 191.703 144.96C196.663 147.2 201.943 148.32 207.543 148.32C213.143 148.32 218.263 147.44 222.903 145.68C226.105 144.506 228.987 143.011 231.549 141.196C233.69 139.679 236.646 139.61 238.586 141.377L252.448 154.007C254.709 156.067 254.613 159.666 252.127 161.448C245.9 165.909 239.518 169.293 232.983 171.6C224.983 174.48 215.943 175.92 205.863 175.92ZM172.023 98.6401H226.488C229.694 98.6401 232.094 95.6383 230.811 92.7006C229.696 90.1467 228.26 87.8065 226.503 85.6801C223.623 81.8401 220.103 78.8801 215.943 76.8001C211.943 74.5601 207.463 73.4401 202.503 73.4401C197.383 73.4401 192.743 74.4801 188.583 76.5601C184.423 78.6401 180.903 81.6001 178.023 85.4401C175.303 89.1201 173.303 93.5201 172.023 98.6401Z" fill="white"/>
<path d="M285.288 173.52V48.4801H308.168C313.691 48.4801 318.168 52.9572 318.168 58.4801V62.4001C322.168 56.9601 326.968 52.8001 332.568 49.9201C338.168 47.0401 344.488 45.6001 351.528 45.6001C354.705 45.6837 357.468 45.9858 359.815 46.5064C363.299 47.2792 365.208 50.6772 365.208 54.2456V72.5695C365.208 74.7643 362.906 76.2461 360.792 75.6549C359.667 75.3401 358.498 75.0818 357.288 74.8801C354.408 74.2401 351.448 73.9201 348.408 73.9201C342.008 73.9201 336.168 75.5201 330.888 78.7201C325.608 81.9201 321.368 86.4801 318.168 92.4001V163.52C318.168 169.043 313.691 173.52 308.168 173.52H285.288Z" fill="white"/>
<path d="M436.175 175.2C424.335 175.2 413.615 172.32 404.015 166.56C394.415 160.8 386.735 153.12 380.975 143.52C375.375 133.76 372.575 122.88 372.575 110.88C372.575 98.8801 375.375 88.0801 380.975 78.4801C386.735 68.7201 394.495 61.0401 404.255 55.4401C414.015 49.6801 424.975 46.8001 437.135 46.8001C443.375 46.8001 449.375 47.6801 455.135 49.4401C460.895 51.0401 466.255 53.4401 471.215 56.6401V9.75062C471.215 7.30867 472.979 5.22394 475.387 4.81963L498.267 0.978463C501.316 0.466517 504.095 2.81736 504.095 5.90946V168.52C504.095 171.282 501.856 173.52 499.095 173.52H471.695V163.2C461.455 171.2 449.615 175.2 436.175 175.2ZM441.455 147.12C447.535 147.12 453.055 146.16 458.015 144.24C463.135 142.16 467.535 139.12 471.215 135.12V88.4711C471.215 87.1451 470.699 85.8613 469.711 84.9765C466.354 81.9694 462.455 79.5639 458.015 77.7601C452.895 75.6801 447.375 74.6401 441.455 74.6401C434.575 74.6401 428.335 76.2401 422.735 79.4401C417.295 82.4801 412.975 86.8001 409.775 92.4001C406.575 97.8401 404.975 104 404.975 110.88C404.975 117.76 406.575 123.92 409.775 129.36C412.975 134.8 417.295 139.12 422.735 142.32C428.335 145.52 434.575 147.12 441.455 147.12Z" fill="white"/>
<path d="M590.941 175.92C578.461 175.92 567.101 173.04 556.861 167.28C546.781 161.52 538.781 153.76 532.861 144C526.941 134.24 523.981 123.28 523.981 111.12C523.981 98.9601 526.781 88.0001 532.381 78.2401C538.141 68.4801 545.901 60.7201 555.661 54.9601C565.421 49.2001 576.301 46.3201 588.301 46.3201C600.301 46.3201 610.941 49.2801 620.221 55.2001C629.501 61.1201 636.781 69.1201 642.061 79.2001C647.501 89.2801 650.221 100.72 650.221 113.52V117.16C650.221 119.922 647.983 122.16 645.221 122.16H564.239C560.909 122.16 558.509 125.373 559.964 128.369C561.21 130.932 562.735 133.342 564.541 135.6C567.901 139.6 571.981 142.72 576.781 144.96C581.741 147.2 587.021 148.32 592.621 148.32C598.221 148.32 603.341 147.44 607.981 145.68C611.184 144.506 614.066 143.011 616.627 141.196C618.768 139.679 621.725 139.61 623.664 141.377L637.527 154.007C639.787 156.067 639.691 159.666 637.205 161.448C630.978 165.909 624.597 169.293 618.061 171.6C610.061 174.48 601.021 175.92 590.941 175.92ZM557.101 98.6401H611.566C614.772 98.6401 617.173 95.6383 615.89 92.7006C614.774 90.1467 613.338 87.8065 611.581 85.6801C608.701 81.8401 605.181 78.8801 601.021 76.8001C597.021 74.5601 592.541 73.4401 587.581 73.4401C582.461 73.4401 577.821 74.4801 573.661 76.5601C569.501 78.6401 565.981 81.6001 563.101 85.4401C560.381 89.1201 558.381 93.5201 557.101 98.6401Z" fill="white"/>
<path d="M652.136 41.6921C649 41.6921 646.116 40.9361 643.484 39.4241C640.908 37.8561 638.836 35.7561 637.268 33.1241C635.756 30.4921 635 27.5521 635 24.3041C635 21.0561 635.756 18.1441 637.268 15.5681C638.836 12.9361 640.908 10.8641 643.484 9.35207C646.116 7.78407 649 7.00007 652.136 7.00007C655.384 7.00007 658.296 7.78407 660.872 9.35207C663.448 10.8641 665.492 12.9361 667.004 15.5681C668.572 18.2001 669.356 21.1121 669.356 24.3041C669.356 27.5521 668.572 30.4921 667.004 33.1241C665.492 35.7561 663.448 37.8561 660.872 39.4241C658.296 40.9361 655.384 41.6921 652.136 41.6921ZM652.136 37.9121C654.712 37.9121 656.98 37.3521 658.94 36.2321C660.9 35.0561 662.44 33.4321 663.56 31.3601C664.736 29.2881 665.324 26.9361 665.324 24.3041C665.324 21.6721 664.736 19.3481 663.56 17.3321C662.44 15.2601 660.9 13.6361 658.94 12.4601C656.98 11.2841 654.712 10.6961 652.136 10.6961C649.616 10.6961 647.348 11.2841 645.332 12.4601C643.372 13.6361 641.832 15.2601 640.712 17.3321C639.592 19.3481 639.032 21.6721 639.032 24.3041C639.032 26.9361 639.592 29.2881 640.712 31.3601C641.832 33.3761 643.372 34.9721 645.332 36.1481C647.348 37.3241 649.616 37.9121 652.136 37.9121ZM646.088 32.1161V17.1241C646.088 16.6822 646.446 16.3241 646.888 16.3241H653.228C654.908 16.3241 656.224 16.7721 657.176 17.6681C658.128 18.5641 658.604 19.7681 658.604 21.2801C658.604 22.2321 658.352 23.1001 657.848 23.8841C657.4 24.6681 656.728 25.2841 655.832 25.7321L658.833 30.9152C659.142 31.4486 658.757 32.1161 658.14 32.1161H655.641C655.345 32.1161 655.073 31.9525 654.935 31.6909L652.445 26.9973C652.307 26.7356 652.035 26.5721 651.739 26.5721H650.036V31.3161C650.036 31.7579 649.678 32.1161 649.236 32.1161H646.088ZM652.472 19.4321H650.036V23.7161H652.388C653.9 23.7161 654.656 22.9881 654.656 21.5321C654.656 20.8601 654.46 20.3561 654.068 20.0201C653.732 19.6281 653.2 19.4321 652.472 19.4321Z" fill="white"/>
<path d="M28.6046 48.0001H10.0108C2.83359 48.0001 -2.00669 55.3368 0.817479 61.935L47.5942 171.221C48.0666 172.324 49.1516 173.04 50.3522 173.04H78.2247C80.3731 173.04 81.8251 170.848 80.9871 168.87L60.2939 120.023L31.3783 49.857C30.9152 48.7333 29.8199 48.0001 28.6046 48.0001Z" fill="#205C38"/>
<path d="M76.6046 48.0001H58.0108C50.8336 48.0001 45.9933 55.3368 48.8175 61.935L85.0749 146.644C86.803 150.682 92.524 150.689 94.2629 146.656L106.215 118.939C106.748 117.701 106.76 116.3 106.246 115.054L79.3783 49.857C78.9152 48.7333 77.8199 48.0001 76.6046 48.0001Z" fill="#43B872"/>
<path d="M131.301 56.9484C131.814 58.1947 131.803 59.5955 131.269 60.8333L118.853 89.6276C117.114 93.6604 111.393 93.6528 109.665 89.6153L97.8175 61.935C94.9933 55.3368 99.8336 48.0001 107.011 48.0001H125.605C126.82 48.0001 127.915 48.7333 128.378 49.857L131.301 56.9484Z" fill="#9CCEB0"/>
</svg>
