<svg width="1024" height="1024" viewBox="0 0 1024 1024" fill="none" xmlns="http://www.w3.org/2000/svg">
<path d="M307.902 171H206.561C167.444 171 141.063 210.987 156.455 246.949L411.401 842.583C413.976 848.599 419.889 852.5 426.432 852.5H578.345C590.054 852.5 597.968 840.553 593.4 829.771L480.617 563.544L323.02 181.121C320.496 174.997 314.526 171 307.902 171Z" fill="#205C38"/>
<path d="M569.515 171H468.174C429.056 171 402.676 210.987 418.068 246.949L636.061 756.251C637.789 760.289 643.51 760.296 645.249 756.264L734.612 549.018C735.145 547.781 735.157 546.38 734.643 545.134L584.632 181.121C582.108 174.997 576.139 171 569.515 171Z" fill="#43B872"/>
<path d="M871.197 228.445C871.71 229.691 871.699 231.092 871.165 232.329L779.273 445.442C777.534 449.475 771.813 449.467 770.085 445.43L685.13 246.949C669.738 210.987 696.119 171 735.236 171H836.577C843.201 171 849.171 174.997 851.694 181.121L871.197 228.445Z" fill="#9CCEB0"/>
</svg>
